<?xml version="1.0" encoding="UTF-8"?>
<svg xmlns="http://www.w3.org/2000/svg" xmlns:xlink="http://www.w3.org/1999/xlink" width="573.11pt" height="240.23pt" viewBox="0 0 573.11 240.23" version="1.1">
<defs>
<clipPath id="clip1">
  <path d="M 0 0 L 573.109375 0 L 573.109375 240.230469 L 0 240.230469 Z M 0 0 "/>
</clipPath>
</defs>
<g id="surface1">
<g clip-path="url(#clip1)" clip-rule="nonzero">
<path style=" stroke:none;fill-rule:evenodd;fill:rgb(0%,0%,0%);fill-opacity:1;" d="M 506.8125 228.730469 C 506.8125 232.28125 507.773438 235.074219 509.695313 237.144531 C 511.617188 239.199219 514.097656 240.230469 517.160156 240.230469 C 520.347656 240.230469 523.0625 239.222656 525.355469 237.222656 C 527.90625 234.976563 529.175781 231.964844 529.175781 228.15625 C 529.175781 224.9375 528.203125 222.363281 526.242188 220.425781 C 524.292969 218.5 521.683594 217.53125 518.421875 217.53125 C 516.175781 217.53125 514.171875 218.015625 512.40625 218.988281 C 510.632813 219.949219 509.257813 221.285156 508.285156 222.992188 C 507.300781 224.707031 506.8125 226.617188 506.8125 228.730469 Z M 511.140625 227.105469 C 511.140625 225.472656 511.460938 223.949219 512.070313 222.566406 C 512.542969 221.539063 513.257813 220.714844 514.226563 220.097656 C 515.195313 219.488281 516.285156 219.179688 517.496094 219.179688 C 518.859375 219.179688 520.085938 219.570313 521.191406 220.347656 C 522.285156 221.113281 523.179688 222.347656 523.84375 224.039063 C 524.515625 225.738281 524.859375 227.734375 524.859375 230.054688 C 524.859375 232.917969 524.292969 235.058594 523.144531 236.460938 C 522.015625 237.875 520.519531 238.582031 518.667969 238.582031 C 516.222656 238.582031 514.371094 237.464844 513.074219 235.21875 C 511.792969 232.96875 511.140625 230.269531 511.140625 227.105469 Z M 428.511719 207.316406 C 427.785156 207.316406 427.175781 207.570313 426.660156 208.082031 C 426.164063 208.589844 425.917969 209.203125 425.917969 209.914063 C 425.917969 210.636719 426.164063 211.246094 426.660156 211.742188 C 427.175781 212.246094 427.785156 212.5 428.511719 212.5 C 429.21875 212.5 429.828125 212.246094 430.324219 211.742188 C 430.828125 211.246094 431.082031 210.636719 431.082031 209.914063 C 431.082031 209.203125 430.828125 208.589844 430.324219 208.082031 C 429.828125 207.570313 429.21875 207.316406 428.511719 207.316406 Z M 430.292969 217.441406 C 428.90625 217.992188 427.769531 218.382813 426.882813 218.609375 C 426 218.835938 424.628906 219.097656 422.769531 219.375 L 422.769531 220.6875 L 424.492188 220.6875 C 425.324219 220.6875 425.863281 220.789063 426.09375 220.988281 C 426.332031 221.191406 426.472656 221.523438 426.503906 222.007813 C 426.578125 223.300781 426.625 225.128906 426.625 227.507813 C 426.625 230.9375 426.578125 233.628906 426.503906 235.589844 C 426.464844 236.84375 426.351563 237.589844 426.164063 237.808594 C 425.992188 238.03125 425.523438 238.167969 424.746094 238.230469 L 422.769531 238.445313 L 422.769531 239.757813 C 424.609375 239.667969 426.4375 239.609375 428.238281 239.609375 C 430.089844 239.609375 432.132813 239.667969 434.378906 239.757813 L 434.378906 238.445313 L 432.8125 238.242188 C 431.941406 238.125 431.390625 237.96875 431.164063 237.746094 C 430.933594 237.527344 430.785156 237.152344 430.726563 236.597656 C 430.589844 235.1875 430.523438 233.492188 430.523438 231.492188 C 430.523438 229.355469 430.566406 226.054688 430.660156 221.578125 C 430.691406 220.199219 430.746094 218.941406 430.839844 217.785156 Z M 343.167969 218.949219 C 342.183594 218.46875 341.234375 218.117188 340.320313 217.890625 C 339.394531 217.648438 338.503906 217.53125 337.636719 217.53125 C 336.351563 217.53125 334.953125 217.910156 333.445313 218.667969 C 331.480469 219.667969 330.023438 220.484375 329.097656 221.136719 C 328.160156 221.792969 327.367188 222.832031 326.691406 224.273438 C 326.019531 225.714844 325.691406 227.453125 325.691406 229.484375 C 325.691406 232.761719 326.5625 235.371094 328.300781 237.316406 C 330.039063 239.253906 332.1875 240.230469 334.777344 240.230469 C 335.757813 240.230469 336.902344 240.011719 338.207031 239.585938 C 340.21875 237.753906 341.863281 236.355469 343.167969 235.332031 C 343.109375 237.242188 343.03125 238.722656 342.933594 239.757813 C 344.605469 239.667969 345.574219 239.609375 345.835938 239.609375 C 347.277344 239.609375 348.9375 239.667969 350.820313 239.757813 L 350.820313 238.445313 L 349.203125 238.230469 C 348.160156 238.09375 347.527344 237.820313 347.296875 237.398438 C 347.140625 237.117188 347.066406 235.683594 347.066406 233.125 L 347.066406 219.390625 L 347.117188 217.394531 L 347.203125 211.277344 C 347.285156 209.0625 347.382813 207.179688 347.496094 205.613281 L 347.066406 205.339844 C 344.703125 206.289063 342.148438 206.847656 339.40625 207.03125 L 339.40625 208.351563 L 341.382813 208.351563 C 342.144531 208.351563 342.636719 208.472656 342.851563 208.730469 C 343.058594 208.976563 343.167969 209.578125 343.167969 210.554688 Z M 343.167969 228.515625 C 343.167969 230.84375 342.933594 232.554688 342.457031 233.640625 C 341.992188 234.726563 341.234375 235.613281 340.21875 236.28125 C 339.203125 236.964844 338.082031 237.316406 336.859375 237.316406 C 334.871094 237.316406 333.171875 236.5 331.777344 234.859375 C 330.375 233.230469 329.683594 230.988281 329.683594 228.125 C 329.683594 225.316406 330.292969 223.15625 331.511719 221.707031 C 332.722656 220.242188 334.34375 219.515625 336.332031 219.515625 C 337.566406 219.515625 338.753906 219.800781 339.886719 220.359375 C 341.015625 220.929688 342.121094 221.777344 343.167969 222.910156 Z M 244.875 239.757813 C 245.867188 239.667969 246.863281 239.609375 247.855469 239.609375 C 249.179688 239.609375 250.808594 239.667969 252.71875 239.757813 L 252.71875 238.445313 L 251.378906 238.445313 C 250.277344 238.445313 249.542969 238.207031 249.203125 237.722656 C 248.980469 237.398438 248.863281 236.136719 248.863281 233.902344 C 248.863281 229.933594 248.980469 225.324219 249.191406 220.105469 L 249.289063 217.96875 C 249.289063 217.6875 249.160156 217.53125 248.894531 217.53125 C 248.777344 217.53125 248.632813 217.578125 248.484375 217.65625 C 247.253906 218.160156 246.097656 218.539063 244.984375 218.804688 C 243.886719 219.054688 242.550781 219.273438 240.972656 219.464844 L 240.972656 220.738281 L 242.789063 220.738281 C 244.011719 220.738281 244.695313 220.894531 244.847656 221.214844 C 245.019531 221.601563 245.097656 224.054688 245.097656 228.558594 C 245.097656 231.234375 245.015625 232.84375 244.800781 233.367188 C 244.441406 234.292969 243.664063 235.21875 242.488281 236.136719 C 241.3125 237.042969 240.023438 237.496094 238.605469 237.496094 C 237.546875 237.496094 236.671875 237.242188 235.9375 236.730469 C 235.203125 236.214844 234.722656 235.574219 234.496094 234.808594 C 234.269531 234.035156 234.152344 232.257813 234.152344 229.480469 C 234.152344 226.695313 234.257813 223.683594 234.46875 220.457031 L 234.625 218.105469 C 234.625 217.730469 234.496094 217.53125 234.234375 217.53125 L 232.3125 218.277344 C 230.535156 218.875 228.597656 219.273438 226.5 219.464844 L 226.5 220.738281 L 228.554688 220.738281 C 229.394531 220.738281 229.886719 220.890625 230.035156 221.167969 C 230.1875 221.457031 230.246094 222.882813 230.246094 225.464844 L 230.1875 229.132813 C 230.132813 230.503906 230.109375 231.707031 230.109375 232.746094 C 230.109375 234.738281 230.339844 236.1875 230.785156 237.117188 C 231.25 238.03125 231.960938 238.789063 232.953125 239.359375 C 233.945313 239.945313 235.121094 240.230469 236.503906 240.230469 C 238.097656 240.230469 239.449219 240 240.539063 239.535156 C 241.632813 239.058594 242.695313 238.265625 243.746094 237.109375 L 245.097656 235.644531 Z M 148.917969 221.679688 L 153.335938 221.65625 L 154.269531 221.679688 L 154.515625 219.375 L 152.6875 219.453125 C 151.507813 219.488281 149.980469 219.515625 148.117188 219.515625 C 148.253906 215.058594 148.378906 212.226563 148.496094 211.023438 L 147.886719 210.558594 C 147.109375 211.023438 145.816406 211.632813 144.035156 212.382813 C 144.136719 214.949219 144.199219 217.316406 144.210938 219.515625 C 143.09375 220.050781 141.875 220.550781 140.558594 221.042969 L 140.558594 222.007813 C 141.8125 221.914063 143.035156 221.871094 144.210938 221.871094 L 144.210938 230.621094 L 144.125 235.074219 C 144.125 236.398438 144.3125 237.382813 144.667969 238.03125 C 145.011719 238.679688 145.578125 239.210938 146.363281 239.621094 C 147.160156 240.023438 148.117188 240.230469 149.261719 240.230469 C 149.683594 240.230469 150.128906 240.1875 150.597656 240.09375 C 151.054688 240 151.539063 239.875 152.027344 239.714844 L 154.269531 237.070313 L 153.609375 236.273438 C 153.199219 236.609375 152.769531 236.871094 152.355469 237.046875 C 151.941406 237.222656 151.507813 237.316406 151.054688 237.316406 C 150.335938 237.316406 149.738281 237.125 149.285156 236.75 C 148.8125 236.386719 148.507813 235.867188 148.347656 235.21875 C 148.195313 234.554688 148.117188 233.042969 148.117188 230.703125 L 148.117188 221.679688 Z M 53.472656 232.746094 L 53.488281 233.84375 C 53.488281 234.667969 53.40625 235.820313 53.269531 237.316406 C 53.226563 237.890625 53.171875 238.308594 53.117188 238.535156 L 53.039063 238.859375 C 53.039063 239.074219 53.253906 239.230469 53.664063 239.335938 C 55.996094 239.933594 58.113281 240.230469 59.984375 240.230469 C 62.9375 240.230469 65.304688 239.472656 67.066406 237.972656 C 68.835938 236.472656 69.722656 234.691406 69.722656 232.621094 C 69.722656 231.617188 69.503906 230.722656 69.082031 229.933594 C 68.644531 229.152344 68.089844 228.566406 67.378906 228.195313 C 66.667969 227.808594 65.214844 227.390625 63.019531 226.949219 C 60.027344 226.355469 58.207031 225.78125 57.546875 225.257813 C 56.890625 224.730469 56.566406 223.949219 56.566406 222.9375 C 56.566406 221.855469 56.976563 220.972656 57.8125 220.253906 C 58.648438 219.535156 59.773438 219.179688 61.167969 219.179688 C 62.214844 219.179688 63.222656 219.410156 64.152344 219.863281 C 65.089844 220.335938 65.730469 220.851563 66.082031 221.410156 C 66.34375 221.847656 66.496094 222.726563 66.519531 224.078125 L 67.894531 224.078125 C 67.972656 221.636719 68.089844 219.875 68.210938 218.835938 C 66.082031 217.96875 63.945313 217.53125 61.792969 217.53125 C 59.070313 217.53125 56.976563 218.171875 55.492188 219.445313 C 54.019531 220.714844 53.269531 222.367188 53.269531 224.421875 C 53.269531 225.507813 53.511719 226.433594 54.003906 227.199219 C 54.492188 227.96875 55.226563 228.578125 56.210938 229.042969 C 57.1875 229.496094 59.195313 230.035156 62.234375 230.65625 C 63.867188 230.988281 64.972656 231.445313 65.554688 231.996094 C 66.140625 232.574219 66.425781 233.316406 66.425781 234.261719 C 66.425781 235.4375 65.941406 236.457031 64.929688 237.304688 C 63.933594 238.160156 62.640625 238.582031 61.058594 238.582031 C 59.835938 238.582031 58.636719 238.355469 57.480469 237.890625 C 56.328125 237.425781 55.550781 236.953125 55.144531 236.460938 C 54.929688 236.175781 54.832031 235.4375 54.832031 234.230469 L 54.832031 232.746094 Z M 276.261719 185.480469 C 273.484375 184.988281 271.257813 184.441406 269.617188 183.84375 C 267.191406 182.964844 265.039063 181.691406 263.164063 180.019531 C 260.507813 177.621094 258.054688 174.066406 255.78125 169.351563 C 253.519531 164.632813 250.472656 156.78125 246.65625 145.777344 L 195.554688 0.00390625 L 188.824219 0.00390625 L 145.988281 130.789063 C 142.085938 142.71875 138.9375 151.664063 136.5625 157.625 C 134.171875 163.59375 131.742188 168.472656 129.226563 172.269531 C 126.265625 176.980469 123.214844 180.402344 120.089844 182.527344 C 116.964844 184.660156 113.332031 185.859375 109.1875 186.132813 L 109.1875 189.257813 L 161.734375 189.257813 L 161.734375 186.132813 C 156.9375 185.671875 153.003906 184.1875 149.9375 181.691406 C 147.738281 179.851563 146.003906 177.449219 144.714844 174.488281 C 143.425781 171.535156 142.78125 168.347656 142.78125 164.925781 C 142.78125 159.101563 144.535156 151.109375 148.050781 140.933594 L 150.996094 132.347656 L 157.132813 113.214844 L 208.800781 113.214844 L 220.039063 145.929688 L 222.027344 151.757813 C 224.210938 158.128906 225.300781 163.203125 225.300781 167.007813 C 225.300781 173.375 222.875 178.363281 218.023438 181.980469 C 215.292969 184.007813 210.441406 185.386719 203.46875 186.132813 L 203.46875 189.257813 L 345.445313 189.257813 L 345.445313 186.132813 C 340.917969 185.859375 337.257813 185.09375 334.488281 183.84375 C 331.710938 182.597656 329.257813 180.675781 327.152344 178.09375 C 324.734375 175.128906 323.0625 171.347656 322.164063 166.777344 C 321.261719 162.203125 320.820313 155.191406 320.820313 145.765625 L 320.820313 99.835938 L 328.4375 90.957031 L 354.824219 129.667969 C 357.804688 133.925781 361.441406 139.472656 365.738281 146.3125 C 370.046875 153.152344 372.980469 157.96875 374.535156 160.75 C 377.757813 166.472656 379.351563 171.191406 379.351563 174.894531 C 379.351563 178.320313 378.0625 180.902344 375.472656 182.664063 C 372.902344 184.417969 368.683594 185.578125 362.816406 186.132813 L 362.816406 189.257813 L 571.675781 189.257813 L 573.113281 134.175781 L 570.476563 134.039063 C 568.996094 142.34375 567.367188 149.035156 565.621094 154.113281 C 563.875 159.191406 561.597656 163.707031 558.78125 167.683594 C 554.816406 173.589844 549.664063 177.964844 543.347656 180.78125 C 537.03125 183.589844 529.210938 184.996094 519.855469 184.996094 C 510.890625 184.996094 503.664063 183.453125 498.1875 180.355469 C 492.722656 177.265625 488.644531 172.390625 485.96875 165.75 C 484.386719 161.863281 483.320313 157.042969 482.773438 151.277344 C 482.226563 145.503906 481.960938 136.289063 481.960938 123.652344 L 481.960938 91.929688 L 488.667969 91.929688 C 494.480469 91.929688 499.261719 92.625 503.035156 94.007813 C 506.8125 95.398438 509.863281 97.5625 512.226563 100.53125 C 514.65625 103.574219 516.5625 107.277344 517.925781 111.628906 C 519.308594 115.96875 520.347656 121.703125 521.054688 128.820313 L 523.695313 128.820313 L 524.175781 54.613281 L 521.535156 54.476563 C 520.824219 61.582031 519.949219 66.945313 518.886719 70.59375 C 517.820313 74.234375 516.191406 77.390625 513.992188 80.0625 C 511.714844 82.921875 508.78125 84.902344 505.160156 86.015625 C 501.550781 87.121094 496.171875 87.671875 489.023438 87.671875 L 481.960938 87.671875 L 481.960938 4.253906 L 508.824219 4.253906 C 517.117188 4.253906 523.765625 4.925781 528.765625 6.273438 C 533.773438 7.621094 538.109375 9.910156 541.796875 13.160156 C 546.238281 17.042969 549.652344 21.542969 551.996094 26.636719 C 554.339844 31.730469 556.027344 38.183594 557.042969 45.960938 L 559.6875 45.824219 L 557.761719 0.00390625 L 431.816406 0.00390625 L 431.816406 3.125 C 436.367188 3.398438 440.027344 4.140625 442.820313 5.335938 C 445.597656 6.542969 448.046875 8.488281 450.175781 11.164063 C 452.601563 14.128906 454.269531 17.90625 455.175781 22.480469 C 456.078125 27.058594 456.519531 34.070313 456.519531 43.492188 L 456.519531 145.765625 C 456.519531 155.191406 456.078125 162.203125 455.175781 166.777344 C 454.269531 171.347656 452.601563 175.128906 450.175781 178.09375 C 447.972656 180.765625 445.480469 182.714844 442.691406 183.917969 C 441.082031 184.609375 439.183594 185.15625 436.996094 185.535156 C 434.730469 185.046875 432.773438 184.441406 431.105469 183.707031 C 428.683594 182.644531 425.871094 180.863281 422.675781 178.363281 C 417.367188 174.296875 412.242188 168.652344 407.320313 161.433594 L 400.652344 151.3125 L 346.625 69.722656 L 384.632813 26.578125 C 392.058594 18.152344 397.300781 12.648438 400.34375 10.054688 C 403.089844 7.746094 405.601563 6.097656 407.917969 5.140625 C 410.214844 4.160156 413.101563 3.484375 416.527344 3.125 L 416.527344 0.00390625 L 365.980469 0.00390625 L 365.980469 3.125 C 370.597656 3.671875 373.894531 4.511719 375.863281 5.617188 C 379.628906 7.929688 381.515625 11.355469 381.515625 15.890625 C 381.515625 18.390625 380.910156 20.671875 379.683594 22.753906 C 378.476563 24.835938 375.414063 28.746094 370.472656 34.480469 L 320.820313 92.753906 L 320.820313 43.492188 C 320.820313 34.070313 321.261719 27.058594 322.164063 22.480469 C 323.0625 17.90625 324.734375 14.128906 327.152344 11.164063 C 329.339844 8.488281 331.820313 6.542969 334.601563 5.335938 C 337.375 4.140625 340.992188 3.398438 345.445313 3.125 L 345.445313 0.00390625 L 270.777344 0.00390625 L 270.777344 3.125 C 275.234375 3.398438 278.867188 4.140625 281.683594 5.335938 C 284.503906 6.542969 286.953125 8.488281 289.058594 11.164063 C 291.558594 14.128906 293.234375 17.878906 294.097656 22.410156 C 294.949219 26.9375 295.386719 33.972656 295.386719 43.492188 L 295.386719 145.765625 C 295.386719 155.28125 294.949219 162.316406 294.097656 166.847656 C 293.234375 171.375 291.558594 175.128906 289.058594 178.09375 C 286.953125 180.675781 284.507813 182.597656 281.742188 183.84375 C 280.1875 184.542969 278.363281 185.09375 276.261719 185.480469 Z M 159.015625 107.539063 L 182.355469 35.660156 L 206.925781 107.539063 Z M 50.132813 90.511719 C 57.390625 90.511719 63.320313 91.042969 67.953125 92.113281 C 72.558594 93.175781 76.4375 94.855469 79.59375 97.167969 C 83.863281 100.300781 87.03125 104.4375 89.117188 109.558594 C 91.214844 114.683594 92.695313 121.960938 93.558594 131.367188 L 96.1875 131.367188 L 96.917969 47.523438 L 94.28125 47.386719 C 93.800781 54.308594 92.863281 59.894531 91.441406 64.1875 C 90.023438 68.476563 87.945313 72.195313 85.191406 75.328125 C 78.898438 82.613281 68.78125 86.257813 54.863281 86.257813 L 50.132813 86.257813 L 50.132813 4.253906 L 68.371094 4.253906 C 77.15625 4.253906 84.058594 4.769531 89.074219 5.792969 C 94.085938 6.8125 98.527344 8.613281 102.367188 11.214844 C 109.027344 15.652344 114.207031 21.90625 117.894531 29.972656 C 119.542969 33.496094 121.347656 38.769531 123.304688 45.8125 L 125.945313 45.117188 L 122.582031 0.00390625 L 0 0.00390625 L 0 3.125 C 5.875 3.484375 10.472656 4.734375 13.777344 6.863281 C 19.726563 10.84375 23.097656 16.90625 23.886719 25.042969 C 24.433594 31.425781 24.707031 37.582031 24.707031 43.492188 L 24.707031 145.765625 C 24.707031 154.550781 24.234375 161.433594 23.300781 166.4375 C 22.351563 171.425781 20.785156 175.359375 18.585938 178.230469 C 16.710938 180.625 14.082031 182.554688 10.703125 183.980469 C 7.332031 185.410156 3.769531 186.132813 0 186.132813 L 0 189.257813 L 74.84375 189.257813 L 74.84375 186.132813 C 70.375 185.859375 66.710938 185.09375 63.839844 183.84375 C 60.980469 182.597656 58.488281 180.625 56.363281 177.953125 C 53.945313 174.910156 52.304688 171.152344 51.429688 166.660156 C 50.570313 162.1875 50.132813 155.234375 50.132813 145.804688 L 50.132813 90.511719 "/>
</g>
</g>
</svg>
